<svg xmlns="http://www.w3.org/2000/svg" width="900" height="420" viewBox="0 0 900 420" role="img" aria-labelledby="title desc">
  <title id="title">Raillen Lab Pulse</title>
  <desc id="desc">Activity across Raillen, Poppy Team and WASD.studio during the last 30 days.</desc>

  <rect x="1" y="1" width="898" height="418" rx="22" fill="#ffffff" stroke="#d0d7de"/>

  <text x="48" y="51" fill="#1f2328" font-family="Inter, ui-sans-serif, system-ui, sans-serif" font-size="24" font-weight="700">
    raillen lab pulse
  </text>
  <text x="48" y="76" fill="#656d76" font-family="Inter, ui-sans-serif, system-ui, sans-serif" font-size="13">
    last 30 days across raillen · poppy team · wasd.studio
  </text>

  <rect x="48" y="99" width="190" height="91" rx="14" fill="#f6f8fa" stroke="#d0d7de"/>
  <text x="65" y="126" fill="#656d76" font-family="Inter, ui-sans-serif, system-ui, sans-serif" font-size="12">commits · 30d</text>
  <text x="65" y="166" fill="#1a7f37" font-family="Inter, ui-sans-serif, system-ui, sans-serif" font-size="31" font-weight="700">319</text>

  <rect x="252" y="99" width="190" height="91" rx="14" fill="#f6f8fa" stroke="#d0d7de"/>
  <text x="269" y="126" fill="#656d76" font-family="Inter, ui-sans-serif, system-ui, sans-serif" font-size="12">active repos · 30d</text>
  <text x="269" y="166" fill="#0969da" font-family="Inter, ui-sans-serif, system-ui, sans-serif" font-size="31" font-weight="700">2</text>

  <rect x="456" y="99" width="190" height="91" rx="14" fill="#f6f8fa" stroke="#d0d7de"/>
  <text x="473" y="126" fill="#656d76" font-family="Inter, ui-sans-serif, system-ui, sans-serif" font-size="12">public projects</text>
  <text x="473" y="166" fill="#8250df" font-family="Inter, ui-sans-serif, system-ui, sans-serif" font-size="31" font-weight="700">6</text>

  <rect x="660" y="99" width="192" height="91" rx="14" fill="#f6f8fa" stroke="#d0d7de"/>
  <text x="677" y="126" fill="#656d76" font-family="Inter, ui-sans-serif, system-ui, sans-serif" font-size="12">ecosystem</text>
  <text x="677" y="158" fill="#9a6700" font-family="Inter, ui-sans-serif, system-ui, sans-serif" font-size="18" font-weight="700">3 little homes</text>
  <text x="677" y="178" fill="#656d76" font-family="Inter, ui-sans-serif, system-ui, sans-serif" font-size="11">raillen · poppy · wasd</text>

  <text x="48" y="211" fill="#656d76" font-family="Inter, ui-sans-serif, system-ui, sans-serif" font-size="12">daily commit weather</text>
  <rect x="48.00" y="299.00" width="22.93" height="3.00" rx="2" fill="#8250df" opacity="0.38"/><rect x="74.93" y="299.00" width="22.93" height="3.00" rx="2" fill="#8250df" opacity="0.38"/><rect x="101.87" y="299.00" width="22.93" height="3.00" rx="2" fill="#8250df" opacity="0.38"/><rect x="128.80" y="299.00" width="22.93" height="3.00" rx="2" fill="#8250df" opacity="0.38"/><rect x="155.73" y="299.00" width="22.93" height="3.00" rx="2" fill="#8250df" opacity="0.38"/><rect x="182.67" y="299.00" width="22.93" height="3.00" rx="2" fill="#8250df" opacity="0.38"/><rect x="209.60" y="299.00" width="22.93" height="3.00" rx="2" fill="#8250df" opacity="0.38"/><rect x="236.53" y="299.00" width="22.93" height="3.00" rx="2" fill="#8250df" opacity="0.38"/><rect x="263.47" y="299.00" width="22.93" height="3.00" rx="2" fill="#8250df" opacity="0.38"/><rect x="290.40" y="299.00" width="22.93" height="3.00" rx="2" fill="#8250df" opacity="0.38"/><rect x="317.33" y="299.00" width="22.93" height="3.00" rx="2" fill="#8250df" opacity="0.38"/><rect x="344.27" y="299.00" width="22.93" height="3.00" rx="2" fill="#8250df" opacity="0.38"/><rect x="371.20" y="299.00" width="22.93" height="3.00" rx="2" fill="#8250df" opacity="0.38"/><rect x="398.13" y="299.00" width="22.93" height="3.00" rx="2" fill="#8250df" opacity="0.38"/><rect x="425.07" y="299.00" width="22.93" height="3.00" rx="2" fill="#8250df" opacity="0.38"/><rect x="452.00" y="299.00" width="22.93" height="3.00" rx="2" fill="#8250df" opacity="0.38"/><rect x="478.93" y="299.00" width="22.93" height="3.00" rx="2" fill="#8250df" opacity="0.38"/><rect x="505.87" y="299.00" width="22.93" height="3.00" rx="2" fill="#8250df" opacity="0.38"/><rect x="532.80" y="299.00" width="22.93" height="3.00" rx="2" fill="#8250df" opacity="0.38"/><rect x="559.73" y="299.00" width="22.93" height="3.00" rx="2" fill="#8250df" opacity="0.38"/><rect x="586.67" y="299.00" width="22.93" height="3.00" rx="2" fill="#8250df" opacity="0.38"/><rect x="613.60" y="299.00" width="22.93" height="3.00" rx="2" fill="#8250df" opacity="0.38"/><rect x="640.53" y="299.00" width="22.93" height="3.00" rx="2" fill="#8250df" opacity="0.38"/><rect x="667.47" y="299.00" width="22.93" height="3.00" rx="2" fill="#8250df" opacity="0.38"/><rect x="694.40" y="299.00" width="22.93" height="3.00" rx="2" fill="#8250df" opacity="0.38"/><rect x="721.33" y="299.00" width="22.93" height="3.00" rx="2" fill="#8250df" opacity="0.38"/><rect x="748.27" y="263.88" width="22.93" height="38.12" rx="2" fill="#8250df" opacity="0.95"/><rect x="775.20" y="220.00" width="22.93" height="82.00" rx="2" fill="#8250df" opacity="0.95"/><rect x="802.13" y="283.83" width="22.93" height="18.17" rx="2" fill="#8250df" opacity="0.95"/><rect x="829.07" y="298.90" width="22.93" height="3.10" rx="2" fill="#8250df" opacity="0.95"/>

  <text x="48" y="328" fill="#656d76" font-family="Inter, ui-sans-serif, system-ui, sans-serif" font-size="11">
    30 days ago
  </text>
  <text x="812" y="328" text-anchor="end" fill="#656d76" font-family="Inter, ui-sans-serif, system-ui, sans-serif" font-size="11">
    today
  </text>

  <text x="48" y="347" fill="#656d76" font-family="Inter, ui-sans-serif, system-ui, sans-serif" font-size="11">active-language mix</text>
  <rect x="49.00" y="352" width="440.17" height="8" rx="4" fill="#8250df" opacity="0.88"/><rect x="491.17" y="352" width="99.76" height="8" rx="4" fill="#8250df" opacity="0.88"/><rect x="592.93" y="352" width="81.96" height="8" rx="4" fill="#8250df" opacity="0.88"/><rect x="676.89" y="352" width="78.55" height="8" rx="4" fill="#8250df" opacity="0.88"/><rect x="757.44" y="352" width="71.65" height="8" rx="4" fill="#8250df" opacity="0.88"/>
  <text x="48" y="379" fill="#1f2328" font-family="Inter, ui-sans-serif, system-ui, sans-serif" font-size="11">TypeScript 55% · CSS 12% · JavaScript 10% · Shell 10% · Rust 9%</text>

  <text x="48" y="397" fill="#656d76" font-family="Inter, ui-sans-serif, system-ui, sans-serif" font-size="10">
    busy lately · custom-char-creator · petunia-ds
  </text>
  <text x="852" y="397" text-anchor="end" fill="#656d76" font-family="Inter, ui-sans-serif, system-ui, sans-serif" font-size="10">
    updated 2026-10-10
  </text>
</svg>
