<svg xmlns="http://www.w3.org/2000/svg" width="900" height="420" viewBox="0 0 900 420" role="img" aria-labelledby="title desc">
  <title id="title">Raillen Lab Pulse</title>
  <desc id="desc">Activity across Raillen, Poppy Team and WASD.studio during the last 30 days.</desc>

  <rect x="1" y="1" width="898" height="418" rx="22" fill="#ffffff" stroke="#d0d7de"/>

  <text x="48" y="51" fill="#1f2328" font-family="Inter, ui-sans-serif, system-ui, sans-serif" font-size="24" font-weight="700">
    raillen lab pulse
  </text>
  <text x="48" y="76" fill="#656d76" font-family="Inter, ui-sans-serif, system-ui, sans-serif" font-size="13">
    last 30 days across raillen · poppy team · wasd.studio
  </text>

  <rect x="48" y="99" width="190" height="91" rx="14" fill="#f6f8fa" stroke="#d0d7de"/>
  <text x="65" y="126" fill="#656d76" font-family="Inter, ui-sans-serif, system-ui, sans-serif" font-size="12">commits · 30d</text>
  <text x="65" y="166" fill="#1a7f37" font-family="Inter, ui-sans-serif, system-ui, sans-serif" font-size="31" font-weight="700">588</text>

  <rect x="252" y="99" width="190" height="91" rx="14" fill="#f6f8fa" stroke="#d0d7de"/>
  <text x="269" y="126" fill="#656d76" font-family="Inter, ui-sans-serif, system-ui, sans-serif" font-size="12">active repos · 30d</text>
  <text x="269" y="166" fill="#0969da" font-family="Inter, ui-sans-serif, system-ui, sans-serif" font-size="31" font-weight="700">9</text>

  <rect x="456" y="99" width="190" height="91" rx="14" fill="#f6f8fa" stroke="#d0d7de"/>
  <text x="473" y="126" fill="#656d76" font-family="Inter, ui-sans-serif, system-ui, sans-serif" font-size="12">public projects</text>
  <text x="473" y="166" fill="#8250df" font-family="Inter, ui-sans-serif, system-ui, sans-serif" font-size="31" font-weight="700">11</text>

  <rect x="660" y="99" width="192" height="91" rx="14" fill="#f6f8fa" stroke="#d0d7de"/>
  <text x="677" y="126" fill="#656d76" font-family="Inter, ui-sans-serif, system-ui, sans-serif" font-size="12">ecosystem</text>
  <text x="677" y="158" fill="#9a6700" font-family="Inter, ui-sans-serif, system-ui, sans-serif" font-size="18" font-weight="700">3 little homes</text>
  <text x="677" y="178" fill="#656d76" font-family="Inter, ui-sans-serif, system-ui, sans-serif" font-size="11">raillen · poppy · wasd</text>

  <text x="48" y="211" fill="#656d76" font-family="Inter, ui-sans-serif, system-ui, sans-serif" font-size="12">daily commit weather</text>
  <rect x="48.00" y="299.00" width="22.93" height="3.00" rx="2" fill="#8250df" opacity="0.38"/><rect x="74.93" y="299.00" width="22.93" height="3.00" rx="2" fill="#8250df" opacity="0.38"/><rect x="101.87" y="298.63" width="22.93" height="3.37" rx="2" fill="#8250df" opacity="0.95"/><rect x="128.80" y="299.00" width="22.93" height="3.00" rx="2" fill="#8250df" opacity="0.95"/><rect x="155.73" y="299.00" width="22.93" height="3.00" rx="2" fill="#8250df" opacity="0.38"/><rect x="182.67" y="299.00" width="22.93" height="3.00" rx="2" fill="#8250df" opacity="0.95"/><rect x="209.60" y="290.21" width="22.93" height="11.79" rx="2" fill="#8250df" opacity="0.95"/><rect x="236.53" y="283.47" width="22.93" height="18.53" rx="2" fill="#8250df" opacity="0.95"/><rect x="263.47" y="292.45" width="22.93" height="9.55" rx="2" fill="#8250df" opacity="0.95"/><rect x="290.40" y="299.00" width="22.93" height="3.00" rx="2" fill="#8250df" opacity="0.95"/><rect x="317.33" y="299.00" width="22.93" height="3.00" rx="2" fill="#8250df" opacity="0.95"/><rect x="344.27" y="299.00" width="22.93" height="3.00" rx="2" fill="#8250df" opacity="0.38"/><rect x="371.20" y="270.55" width="22.93" height="31.45" rx="2" fill="#8250df" opacity="0.95"/><rect x="398.13" y="290.77" width="22.93" height="11.23" rx="2" fill="#8250df" opacity="0.95"/><rect x="425.07" y="299.00" width="22.93" height="3.00" rx="2" fill="#8250df" opacity="0.95"/><rect x="452.00" y="295.26" width="22.93" height="6.74" rx="2" fill="#8250df" opacity="0.95"/><rect x="478.93" y="289.64" width="22.93" height="12.36" rx="2" fill="#8250df" opacity="0.95"/><rect x="505.87" y="297.51" width="22.93" height="4.49" rx="2" fill="#8250df" opacity="0.95"/><rect x="532.80" y="270.55" width="22.93" height="31.45" rx="2" fill="#8250df" opacity="0.95"/><rect x="559.73" y="295.26" width="22.93" height="6.74" rx="2" fill="#8250df" opacity="0.95"/><rect x="586.67" y="299.00" width="22.93" height="3.00" rx="2" fill="#8250df" opacity="0.95"/><rect x="613.60" y="299.00" width="22.93" height="3.00" rx="2" fill="#8250df" opacity="0.95"/><rect x="640.53" y="295.26" width="22.93" height="6.74" rx="2" fill="#8250df" opacity="0.95"/><rect x="667.47" y="299.00" width="22.93" height="3.00" rx="2" fill="#8250df" opacity="0.95"/><rect x="694.40" y="267.74" width="22.93" height="34.26" rx="2" fill="#8250df" opacity="0.95"/><rect x="721.33" y="299.00" width="22.93" height="3.00" rx="2" fill="#8250df" opacity="0.38"/><rect x="748.27" y="220.00" width="22.93" height="82.00" rx="2" fill="#8250df" opacity="0.95"/><rect x="775.20" y="290.21" width="22.93" height="11.79" rx="2" fill="#8250df" opacity="0.95"/><rect x="802.13" y="271.11" width="22.93" height="30.89" rx="2" fill="#8250df" opacity="0.95"/><rect x="829.07" y="295.82" width="22.93" height="6.18" rx="2" fill="#8250df" opacity="0.95"/>

  <text x="48" y="328" fill="#656d76" font-family="Inter, ui-sans-serif, system-ui, sans-serif" font-size="11">
    30 days ago
  </text>
  <text x="812" y="328" text-anchor="end" fill="#656d76" font-family="Inter, ui-sans-serif, system-ui, sans-serif" font-size="11">
    today
  </text>

  <text x="48" y="347" fill="#656d76" font-family="Inter, ui-sans-serif, system-ui, sans-serif" font-size="11">active-language mix</text>
  <rect x="49.00" y="352" width="494.41" height="8" rx="4" fill="#8250df" opacity="0.88"/><rect x="545.41" y="352" width="142.63" height="8" rx="4" fill="#8250df" opacity="0.88"/><rect x="690.04" y="352" width="44.72" height="8" rx="4" fill="#8250df" opacity="0.88"/><rect x="736.76" y="352" width="24.41" height="8" rx="4" fill="#8250df" opacity="0.88"/><rect x="763.17" y="352" width="19.70" height="8" rx="4" fill="#8250df" opacity="0.88"/>
  <text x="48" y="379" fill="#1f2328" font-family="Inter, ui-sans-serif, system-ui, sans-serif" font-size="11">Rust 62% · Go 18% · Shell 6% · TypeScript 3% · Slint 2%</text>

  <text x="48" y="397" fill="#656d76" font-family="Inter, ui-sans-serif, system-ui, sans-serif" font-size="10">
    busy lately · aipo-lang · ori-lang · petunia3d · oride · prumo
  </text>
  <text x="852" y="397" text-anchor="end" fill="#656d76" font-family="Inter, ui-sans-serif, system-ui, sans-serif" font-size="10">
    updated 2026-09-26
  </text>
</svg>
